<?xml version="1.0" standalone="no"?>
<!DOCTYPE svg PUBLIC "-//W3C//DTD SVG 20010904//EN"
 "http://www.w3.org/TR/2001/REC-SVG-20010904/DTD/svg10.dtd">
<svg version="1.0" xmlns="http://www.w3.org/2000/svg"
 width="448.000000pt" height="241.000000pt" viewBox="0 0 448.000000 241.000000"
 preserveAspectRatio="xMidYMid meet">

<g transform="translate(0.000000,241.000000) scale(0.100000,-0.100000)"
fill="#000" stroke="fill">
<path d="M2000 1480 c0 -286 0 -523 0 -527 0 -5 172 -8 383 -8 l382 0 0 95 0
95 -255 3 c-140 1 -261 4 -267 7 -10 3 -13 99 -13 430 l0 425 -115 0 -115 0 0
-520z"/>
<path d="M2920 1469 l0 -531 303 5 c239 3 314 7 357 20 247 73 382 232 397
469 15 225 -88 410 -279 502 -118 57 -188 66 -504 66 l-274 0 0 -531z m533
331 c121 -18 212 -83 259 -185 32 -70 32 -218 1 -286 -30 -66 -86 -124 -151
-156 -54 -26 -65 -28 -226 -31 -129 -3 -171 -1 -177 9 -9 15 -12 618 -3 642 5
15 22 17 118 17 61 0 142 -5 179 -10z"/>
<path d="M536 1209 c-212 -424 -386 -775 -386 -780 0 -5 328 -9 780 -9 468 0
780 4 780 9 0 16 -769 1546 -779 1549 -5 2 -182 -344 -395 -769z m622 56 c122
-245 222 -447 222 -450 0 -3 -135 -5 -300 -5 -199 0 -300 3 -300 10 0 6 14 37
30 70 l30 60 155 0 c85 0 155 2 155 5 0 10 -215 435 -220 435 -7 0 -350 -687
-350 -700 0 -7 153 -10 435 -10 l435 0 30 -60 c16 -33 30 -64 30 -70 0 -7
-189 -10 -580 -10 -379 0 -580 3 -580 10 0 13 573 1160 580 1160 3 0 105 -200
228 -445z"/>
<path d="M2140 535 c0 -43 4 -75 10 -75 6 0 10 32 10 75 0 43 -4 75 -10 75 -6
0 -10 -32 -10 -75z"/>
<path d="M2530 600 c0 -5 5 -10 10 -10 6 0 10 5 10 10 0 6 -4 10 -10 10 -5 0
-10 -4 -10 -10z"/>
<path d="M3790 535 c0 -43 4 -75 10 -75 6 0 10 32 10 75 0 43 -4 75 -10 75 -6
0 -10 -32 -10 -75z"/>
<path d="M4150 600 c0 -5 5 -10 10 -10 6 0 10 5 10 10 0 6 -4 10 -10 10 -5 0
-10 -4 -10 -10z"/>
<path d="M2000 530 l0 -70 50 0 c29 0 50 5 50 11 0 6 -10 10 -22 9 -53 -5 -68
0 -68 20 0 16 7 20 35 20 19 0 35 5 35 10 0 6 -16 10 -35 10 -28 0 -35 4 -35
20 0 17 7 20 40 20 22 0 40 5 40 10 0 6 -20 10 -45 10 l-45 0 0 -70z"/>
<path d="M3100 590 c0 -5 11 -10 25 -10 24 0 25 -3 25 -60 0 -33 4 -60 10 -60
6 0 10 27 10 60 0 57 1 60 25 60 14 0 25 5 25 10 0 6 -27 10 -60 10 -33 0 -60
-4 -60 -10z"/>
<path d="M2342 572 c-14 -27 9 -106 32 -110 18 -4 19 -3 3 13 -20 19 -23 72
-4 77 9 2 8 8 -5 20 -17 17 -18 17 -26 0z"/>
<path d="M2612 555 c-29 -21 -30 -70 -1 -85 23 -13 69 -5 69 11 0 6 -6 6 -19
-1 -25 -13 -48 -4 -54 20 -8 31 16 54 46 46 16 -4 27 -2 27 4 0 5 -4 10 -9 10
-5 0 -15 2 -23 5 -7 3 -23 -2 -36 -10z"/>
<path d="M2743 563 c-34 -6 -28 -18 9 -18 17 0 33 -6 35 -12 3 -8 -5 -13 -20
-13 -14 0 -33 -7 -42 -16 -24 -24 -2 -43 46 -41 l40 1 -3 39 c-3 44 -28 66
-65 60z m47 -67 c0 -18 -39 -31 -52 -18 -15 15 0 32 28 32 14 0 24 -6 24 -14z"/>
<path d="M2940 557 c-30 -15 -38 -58 -15 -81 19 -18 60 -21 71 -5 4 8 -1 9
-15 4 -22 -7 -51 9 -51 26 0 5 18 9 41 9 32 0 40 3 37 16 -6 30 -40 45 -68 31z
m50 -22 c11 -13 7 -15 -24 -15 -34 0 -44 8 -29 23 11 12 40 8 53 -8z"/>
<path d="M3260 557 c-31 -15 -37 -52 -14 -78 19 -21 59 -25 70 -7 5 8 2 9 -10
5 -19 -8 -56 8 -56 23 0 6 18 10 41 10 32 0 40 3 37 16 -2 9 -12 23 -23 30
-16 11 -25 11 -45 1z m54 -22 c4 -12 -3 -15 -29 -15 -33 0 -43 8 -28 23 12 13
51 7 57 -8z"/>
<path d="M3385 545 c-27 -26 -24 -60 7 -76 22 -12 68 -4 68 12 0 6 -6 6 -19
-1 -38 -20 -71 13 -50 52 8 16 17 19 40 14 33 -6 31 8 -2 17 -14 4 -29 -2 -44
-18z"/>
<path d="M3540 560 c-7 -4 -19 -6 -27 -3 -10 4 -13 -7 -13 -46 0 -28 5 -51 10
-51 6 0 10 15 10 34 0 37 21 62 45 52 9 -3 15 -18 15 -40 0 -19 5 -38 11 -41
7 -5 9 9 7 40 -2 38 -7 49 -24 55 -11 5 -27 4 -34 0z"/>
<path d="M4022 559 c-29 -11 -37 -34 -23 -66 10 -21 17 -25 46 -21 28 3 35 0
35 -13 0 -21 -24 -31 -57 -23 -18 5 -24 3 -19 -5 9 -14 51 -14 77 -1 16 9 19
22 19 71 0 44 -3 59 -12 56 -7 -2 -20 -1 -28 3 -8 4 -25 4 -38 -1z m53 -44 c0
-25 -4 -30 -24 -30 -28 0 -47 25 -38 49 5 12 16 16 34 14 24 -3 28 -8 28 -33z"/>
<path d="M4230 560 c-23 -7 -23 -7 9 -11 40 -5 55 -29 18 -29 -29 0 -52 -23
-43 -45 4 -10 18 -14 46 -13 l41 1 -3 45 c-3 50 -23 64 -68 52z m48 -67 c-4
-22 -48 -31 -48 -10 0 19 10 27 32 27 13 0 18 -6 16 -17z"/>
<path d="M2212 548 c-19 -19 -15 -66 7 -78 26 -13 58 -13 67 2 5 8 2 9 -11 4
-24 -9 -55 2 -55 20 0 10 12 14 40 14 26 0 40 5 40 13 0 21 -22 37 -50 37 -14
0 -31 -5 -38 -12z m66 -15 c2 -9 -7 -13 -27 -13 -30 0 -39 9 -24 24 11 10 46
3 51 -11z"/>
<path d="M2441 505 l1 -50 8 39 c4 22 16 45 26 53 17 12 16 13 -9 11 -26 -2
-27 -5 -26 -53z"/>
<path d="M2530 510 c0 -27 5 -50 10 -50 6 0 10 23 10 50 0 28 -4 50 -10 50 -5
0 -10 -22 -10 -50z"/>
<path d="M3648 535 c-9 -19 -8 -29 6 -50 28 -43 96 -27 96 23 0 37 -17 52 -57
52 -26 0 -36 -6 -45 -25z m80 -16 c4 -34 -20 -54 -47 -39 -38 20 -18 74 24 68
13 -2 21 -12 23 -29z"/>
<path d="M3862 548 c-29 -29 0 -88 45 -88 11 0 28 9 38 20 15 16 17 26 9 48
-7 21 -17 28 -44 30 -19 2 -41 -3 -48 -10z m66 -10 c30 -30 -11 -85 -44 -57
-14 12 -19 51 -7 62 10 11 38 8 51 -5z"/>
<path d="M4150 510 c0 -27 5 -50 10 -50 6 0 10 23 10 50 0 28 -4 50 -10 50 -5
0 -10 -22 -10 -50z"/>
</g>
</svg>
